<svg width="77" height="50" viewBox="0 0 77 50" fill="none" xmlns="http://www.w3.org/2000/svg">
<rect x="40.2146" y="48.7427" width="6.71448" height="31.2426" rx="3.03008" transform="rotate(180 40.2146 48.7427)" fill="white" stroke="black"/>
<rect x="69.5" y="0.5" width="6.95711" height="36.5121" rx="3.03008" fill="white" stroke="black"/>
<rect x="0.5" y="0.5" width="6.74362" height="36.8295" rx="3.03008" fill="white" stroke="black"/>
<mask id="path-4-inside-1_25_319" fill="white">
<path d="M7 25C7 17.8203 12.8203 12 20 12C27.1797 12 33 17.8203 33 25C33 32.1797 27.1797 38 20 38C12.8203 38 7 32.1797 7 25ZM24.7045 25C24.7045 22.4018 22.5982 20.2955 20 20.2955C17.4018 20.2955 15.2955 22.4018 15.2955 25C15.2955 27.5982 17.4018 29.7045 20 29.7045C22.5982 29.7045 24.7045 27.5982 24.7045 25Z"/>
</mask>
<path d="M7 25C7 17.8203 12.8203 12 20 12C27.1797 12 33 17.8203 33 25C33 32.1797 27.1797 38 20 38C12.8203 38 7 32.1797 7 25ZM24.7045 25C24.7045 22.4018 22.5982 20.2955 20 20.2955C17.4018 20.2955 15.2955 22.4018 15.2955 25C15.2955 27.5982 17.4018 29.7045 20 29.7045C22.5982 29.7045 24.7045 27.5982 24.7045 25Z" fill="white" stroke="black" stroke-width="2" mask="url(#path-4-inside-1_25_319)"/>
<mask id="path-5-inside-2_25_319" fill="white">
<path d="M69.1152 24.5366C69.1152 31.5283 63.4473 37.1963 56.4556 37.1963C49.4638 37.1963 43.7959 31.5283 43.7959 24.5366C43.7959 17.5449 49.4638 11.877 56.4556 11.877C63.4473 11.877 69.1152 17.5449 69.1152 24.5366ZM51.8742 24.5366C51.8742 27.0668 53.9254 29.1179 56.4556 29.1179C58.9858 29.1179 61.0369 27.0668 61.0369 24.5366C61.0369 22.0064 58.9858 19.9553 56.4556 19.9553C53.9254 19.9553 51.8742 22.0064 51.8742 24.5366Z"/>
</mask>
<path d="M69.1152 24.5366C69.1152 31.5283 63.4473 37.1963 56.4556 37.1963C49.4638 37.1963 43.7959 31.5283 43.7959 24.5366C43.7959 17.5449 49.4638 11.877 56.4556 11.877C63.4473 11.877 69.1152 17.5449 69.1152 24.5366ZM51.8742 24.5366C51.8742 27.0668 53.9254 29.1179 56.4556 29.1179C58.9858 29.1179 61.0369 27.0668 61.0369 24.5366C61.0369 22.0064 58.9858 19.9553 56.4556 19.9553C53.9254 19.9553 51.8742 22.0064 51.8742 24.5366Z" fill="white" stroke="black" stroke-width="2" mask="url(#path-5-inside-2_25_319)"/>
</svg>
