<svg width="57" height="57" viewBox="0 0 57 57" fill="none" xmlns="http://www.w3.org/2000/svg">
<path d="M50.6655 23.7507H49.0821V14.2507C49.0821 13.8307 48.9153 13.428 48.6184 13.1311C48.3214 12.8341 47.9187 12.6673 47.4988 12.6673H9.49879C9.12388 12.6734 8.75896 12.5463 8.46901 12.3085C8.17906 12.0708 7.9829 11.7378 7.91546 11.369V10.799C7.9829 10.4301 8.17906 10.0972 8.46901 9.85943C8.75896 9.62168 9.12388 9.49454 9.49879 9.50065H46.8338C47.2537 9.50065 47.6564 9.33384 47.9534 9.0369C48.2503 8.73997 48.4171 8.33724 48.4171 7.91732C48.4171 7.49739 48.2503 7.09466 47.9534 6.79773C47.6564 6.5008 47.2537 6.33398 46.8338 6.33398H9.49879C8.23901 6.33398 7.03083 6.83443 6.14004 7.72523C5.24924 8.61603 4.74879 9.82421 4.74879 11.084C4.73738 11.2738 4.73738 11.4642 4.74879 11.654V44.2232C4.75501 45.0757 4.92908 45.9186 5.26107 46.7038C5.59306 47.489 6.07647 48.2012 6.68369 48.7996C7.29092 49.398 8.01006 49.8709 8.80006 50.1914C9.59007 50.5119 10.4355 50.6736 11.288 50.6673H47.4988C47.9187 50.6673 48.3214 50.5005 48.6184 50.2036C48.9153 49.9066 49.0821 49.5039 49.0821 49.084V39.584H50.6655C51.0854 39.584 51.4881 39.4172 51.785 39.1202C52.082 38.8233 52.2488 38.4206 52.2488 38.0007V25.334C52.2488 24.9141 52.082 24.5113 51.785 24.2144C51.4881 23.9175 51.0854 23.7507 50.6655 23.7507ZM45.9155 47.5007H11.288C10.4073 47.5092 9.55893 47.1696 8.92735 46.5558C8.29578 45.942 7.93211 45.1037 7.91546 44.2232V15.644C8.42935 15.7932 8.96419 15.8574 9.49879 15.834H45.9155V23.7507H34.8321C32.7325 23.7507 30.7189 24.5847 29.2342 26.0694C27.7495 27.5541 26.9155 29.5677 26.9155 31.6673C26.9155 33.767 27.7495 35.7806 29.2342 37.2652C30.7189 38.7499 32.7325 39.584 34.8321 39.584H45.9155V47.5007ZM49.0821 36.4173H34.8321C33.5723 36.4173 32.3642 35.9169 31.4734 35.0261C30.5826 34.1353 30.0821 32.9271 30.0821 31.6673C30.0821 30.4075 30.5826 29.1994 31.4734 28.3086C32.3642 27.4178 33.5723 26.9173 34.8321 26.9173H49.0821V36.4173Z" fill="white"/>
<path d="M36.4316 34.043C37.7433 34.043 38.8066 32.9796 38.8066 31.668C38.8066 30.3563 37.7433 29.293 36.4316 29.293C35.12 29.293 34.0566 30.3563 34.0566 31.668C34.0566 32.9796 35.12 34.043 36.4316 34.043Z" fill="white"/>
</svg>
